<?xml version="1.0" standalone="no"?>
<!DOCTYPE svg PUBLIC "-//W3C//DTD SVG 20010904//EN"
 "http://www.w3.org/TR/2001/REC-SVG-20010904/DTD/svg10.dtd">
<svg version="1.0" xmlns="http://www.w3.org/2000/svg"
 width="512.000000pt" height="512.000000pt" viewBox="0 0 512.000000 512.000000"
 preserveAspectRatio="xMidYMid meet">

<g transform="translate(0.000000,512.000000) scale(0.100000,-0.100000)"
fill="#000000" stroke="none">
<path d="M1755 4938 c-45 -24 -45 -22 -45 -438 l0 -397 -122 -6 c-72 -3 -141
-12 -166 -21 -95 -34 -170 -110 -208 -211 -18 -48 -19 -103 -19 -1735 l0
-1685 23 -57 c31 -75 101 -150 177 -185 l60 -28 1105 0 1105 0 60 28 c76 35
146 110 177 185 l23 57 0 1685 c0 1632 -1 1687 -19 1735 -38 101 -113 177
-208 211 -25 9 -94 18 -165 21 l-123 6 0 393 c0 216 -3 400 -6 409 -7 18 -55
45 -81 45 -10 0 -69 -34 -131 -76 -63 -41 -119 -73 -126 -71 -7 3 -61 37 -120
76 -59 39 -118 71 -131 71 -12 0 -75 -34 -139 -76 l-116 -76 -116 76 c-64 42
-127 76 -139 76 -13 0 -72 -32 -131 -71 -59 -39 -113 -73 -120 -76 -7 -2 -63
30 -126 71 -113 76 -136 85 -173 64z m669 -257 c69 -45 118 -71 136 -71 18 0
69 27 143 76 l115 75 114 -75 c74 -50 123 -76 141 -76 16 0 53 16 85 38 31 21
63 42 70 46 9 6 12 -108 12 -553 l0 -561 -680 0 -680 0 0 561 c0 445 3 559 13
553 6 -4 38 -25 69 -46 32 -22 69 -38 85 -38 18 0 66 26 138 74 61 41 115 73
121 71 6 -1 59 -35 118 -74z m-719 -926 l0 -170 -60 -3 c-72 -4 -105 -28 -105
-78 0 -46 9 -63 41 -79 42 -22 1916 -22 1958 0 32 16 41 33 41 79 0 50 -33 74
-105 78 l-60 3 0 170 0 170 60 3 c134 7 205 -17 252 -87 l23 -34 -2 -1681 -3
-1681 -24 -34 c-13 -18 -42 -42 -65 -52 -39 -18 -89 -19 -1096 -19 -1007 0
-1057 1 -1096 19 -23 10 -52 34 -65 52 l-24 34 -3 1681 -2 1681 22 33 c49 71
96 89 228 87 l85 -2 0 -170z"/>
<path d="M2095 4428 c-49 -29 -60 -87 -24 -132 20 -26 22 -26 144 -26 140 0
161 9 171 71 5 29 1 41 -19 65 -25 29 -27 29 -139 32 -74 1 -120 -2 -133 -10z"/>
<path d="M2589 4411 c-37 -38 -39 -82 -4 -116 24 -25 24 -25 234 -25 l210 0
20 26 c23 29 27 80 8 105 -27 35 -54 39 -247 39 l-192 0 -29 -29z"/>
<path d="M2104 4091 c-53 -23 -69 -89 -33 -135 20 -26 22 -26 144 -26 140 0
161 9 171 71 5 29 1 41 -19 65 -24 28 -27 29 -133 31 -60 2 -119 -1 -130 -6z"/>
<path d="M2614 4090 c-53 -21 -69 -88 -33 -134 l20 -26 214 0 214 0 20 26 c28
35 26 77 -3 111 l-24 28 -194 2 c-106 1 -203 -2 -214 -7z"/>
<path d="M1565 3215 l-25 -24 0 -461 0 -461 25 -24 24 -25 971 0 971 0 24 25
25 24 0 461 0 461 -25 24 -24 25 -971 0 -971 0 -24 -25z m1845 -485 l0 -340
-850 0 -850 0 0 340 0 340 850 0 850 0 0 -340z"/>
<path d="M1755 1868 c-49 -26 -60 -86 -24 -132 20 -26 22 -26 145 -26 110 0
126 2 144 20 42 42 32 111 -20 137 -31 16 -217 17 -245 1z"/>
<path d="M2419 1851 c-37 -38 -39 -82 -4 -116 23 -24 30 -25 145 -25 115 0
122 1 145 25 35 34 33 78 -4 116 -29 29 -31 29 -141 29 -110 0 -112 0 -141
-29z"/>
<path d="M3120 1867 c-52 -26 -62 -95 -20 -137 18 -18 34 -20 144 -20 123 0
125 0 145 26 36 46 27 105 -20 129 -36 19 -213 20 -249 2z"/>
<path d="M1775 1363 c-65 -16 -88 -98 -40 -143 23 -22 37 -25 123 -28 73 -3
107 0 135 11 44 19 63 57 50 102 -13 47 -61 65 -163 64 -47 -1 -94 -3 -105 -6z"/>
<path d="M2453 1363 c-31 -6 -63 -50 -63 -84 0 -15 11 -41 24 -56 24 -28 25
-28 146 -28 121 0 122 0 146 28 31 36 31 78 0 114 -23 26 -28 27 -127 29 -57
1 -114 0 -126 -3z"/>
<path d="M3135 1363 c-49 -12 -75 -66 -55 -117 16 -44 67 -59 182 -54 86 3
100 6 123 28 18 17 25 34 25 59 -1 45 -19 69 -61 81 -34 10 -177 12 -214 3z"/>
<path d="M1731 824 c-36 -46 -27 -105 20 -129 36 -19 213 -20 249 -2 52 26 62
95 20 137 -18 18 -34 20 -144 20 -123 0 -125 0 -145 -26z"/>
<path d="M2415 825 c-35 -34 -33 -78 4 -116 29 -29 31 -29 141 -29 110 0 112
0 141 29 37 38 39 82 4 116 -23 24 -30 25 -145 25 -115 0 -122 -1 -145 -25z"/>
<path d="M3100 830 c-42 -42 -32 -111 20 -137 36 -18 213 -17 249 2 47 24 56
83 20 129 -20 26 -22 26 -145 26 -110 0 -126 -2 -144 -20z"/>
</g>
</svg>
