<?xml version="1.0" standalone="no"?>
<!DOCTYPE svg PUBLIC "-//W3C//DTD SVG 20010904//EN"
 "http://www.w3.org/TR/2001/REC-SVG-20010904/DTD/svg10.dtd">
<svg version="1.0" xmlns="http://www.w3.org/2000/svg"
 width="512.000000pt" height="512.000000pt" viewBox="0 0 512.000000 512.000000"
 preserveAspectRatio="xMidYMid meet">

<g transform="translate(0.000000,512.000000) scale(0.100000,-0.100000)"
fill="#000000" stroke="none">
<path d="M393 5106 c-183 -45 -344 -210 -382 -394 -16 -75 -16 -4229 0 -4304
39 -189 208 -358 397 -397 37 -8 359 -11 1045 -11 1092 0 1060 -1 1180 62 74
40 165 131 205 207 66 122 62 -26 62 2291 0 2317 4 2169 -62 2291 -40 76 -131
167 -205 207 -120 63 -87 62 -1188 61 -764 -1 -1012 -4 -1052 -13z m2138 -189
c67 -32 142 -109 172 -175 l22 -47 0 -2135 0 -2135 -22 -47 c-30 -66 -105
-143 -172 -175 l-56 -28 -1025 0 -1025 0 -48 22 c-66 31 -142 105 -174 172
l-28 56 0 2135 0 2135 28 56 c45 92 134 165 232 190 17 4 482 6 1035 6 l1005
-2 56 -28z"/>
<path d="M716 4758 c-40 -35 -43 -78 -11 -116 l27 -32 716 0 c758 1 735 -1
760 47 19 35 14 63 -17 94 l-29 29 -711 0 -710 0 -25 -22z"/>
<path d="M516 4424 c-33 -10 -64 -31 -97 -64 -82 -82 -80 -60 -77 -801 3 -639
3 -644 25 -684 25 -47 74 -95 123 -121 33 -18 77 -19 960 -19 883 0 927 1 960
19 49 26 98 74 123 121 22 40 22 42 22 710 l0 670 -22 41 c-30 57 -97 111
-157 129 -75 22 -1787 21 -1860 -1z m1850 -187 l24 -28 0 -625 0 -626 -29 -29
-29 -29 -881 0 -880 0 -28 24 -28 24 -2 624 c-3 668 -4 659 47 685 20 10 211
12 903 10 l879 -2 24 -28z"/>
<path d="M1842 4082 c-20 -11 -143 -156 -338 -402 -169 -212 -309 -387 -310
-389 -2 -2 -33 23 -68 57 -55 53 -70 62 -101 62 -47 0 -85 -36 -85 -81 0 -27
16 -48 107 -141 59 -60 118 -111 131 -115 13 -3 34 -1 47 5 19 9 650 784 718
882 23 34 21 74 -5 104 -31 34 -58 39 -96 18z"/>
<path d="M1249 2443 c-60 -31 -112 -92 -129 -151 -5 -20 -10 -95 -10 -167 0
-115 3 -136 24 -180 31 -68 92 -120 162 -141 84 -24 293 -16 350 14 53 27 117
100 132 150 7 22 12 99 12 173 0 119 -3 140 -24 184 -12 28 -39 65 -60 83 -63
55 -92 62 -255 62 -141 0 -150 -1 -202 -27z m346 -168 c24 -23 25 -30 25 -139
0 -107 -2 -117 -24 -143 -24 -28 -25 -28 -146 -28 -121 0 -122 0 -146 28 -22
26 -24 36 -24 143 0 109 1 116 25 139 23 24 30 25 145 25 115 0 122 -1 145
-25z"/>
<path d="M509 2277 c-18 -12 -44 -38 -56 -56 -21 -31 -23 -45 -23 -169 0 -120
2 -138 22 -174 38 -67 75 -82 211 -87 136 -4 189 10 231 60 39 46 48 93 44
220 -3 105 -5 119 -30 156 -41 63 -74 73 -231 73 -123 0 -137 -2 -168 -23z
m261 -232 l0 -85 -85 0 -85 0 0 85 0 85 85 0 85 0 0 -85z"/>
<path d="M2048 2280 c-64 -34 -82 -78 -86 -205 -4 -124 7 -180 44 -224 42 -50
95 -64 231 -60 109 4 123 6 160 31 63 41 73 74 73 231 0 123 -2 137 -23 168
-12 18 -38 44 -56 56 -31 21 -45 23 -170 23 -114 -1 -142 -4 -173 -20z m252
-235 l0 -86 -82 3 -83 3 -3 83 -3 82 86 0 85 0 0 -85z"/>
<path d="M522 1603 c-18 -9 -45 -32 -60 -51 -27 -35 -27 -38 -27 -186 0 -142
1 -153 23 -184 42 -58 85 -72 221 -72 66 0 132 5 148 11 42 15 92 68 103 109
13 47 13 241 -1 277 -14 38 -57 83 -96 99 -48 21 -267 19 -311 -3z m248 -238
l0 -85 -85 0 -85 0 0 85 0 85 85 0 85 0 0 -85z"/>
<path d="M1295 1606 c-37 -16 -82 -67 -93 -104 -4 -15 -7 -81 -7 -147 0 -136
10 -165 72 -212 35 -27 42 -28 162 -31 73 -2 141 1 162 7 45 14 94 67 108 118
14 49 14 207 1 255 -14 48 -55 97 -97 114 -44 19 -266 18 -308 0z m245 -241
l0 -85 -85 0 -85 0 0 85 0 85 85 0 85 0 0 -85z"/>
<path d="M2065 1606 c-40 -18 -80 -63 -94 -105 -19 -57 -14 -239 8 -286 40
-87 82 -105 244 -105 108 0 127 3 162 23 22 12 50 38 62 56 21 31 23 45 23
173 0 157 -7 179 -67 225 -35 27 -41 28 -172 30 -99 2 -144 -1 -166 -11z m235
-241 l0 -85 -85 0 -85 0 0 85 0 85 85 0 85 0 0 -85z"/>
<path d="M519 917 c-27 -15 -52 -38 -66 -63 -20 -35 -23 -53 -23 -175 0 -125
2 -139 23 -169 46 -69 63 -75 220 -78 132 -2 145 -1 181 20 24 14 48 40 63 67
20 39 23 58 23 158 0 214 -48 262 -261 263 -102 0 -121 -3 -160 -23z m251
-232 l0 -85 -85 0 -85 0 0 85 0 85 85 0 85 0 0 -85z"/>
<path d="M1290 918 c-77 -40 -100 -92 -100 -233 0 -133 20 -185 90 -232 30
-21 44 -23 167 -23 145 0 167 6 215 57 36 38 48 90 48 203 -1 200 -52 249
-260 250 -101 0 -122 -3 -160 -22z m248 -235 l3 -83 -86 0 -85 0 0 85 0 86 83
-3 82 -3 3 -82z"/>
<path d="M2064 921 c-85 -38 -108 -98 -103 -263 4 -102 7 -118 29 -151 45 -66
79 -77 232 -77 124 0 138 2 169 23 18 12 44 38 57 57 22 33 23 42 20 180 -3
134 -5 147 -27 179 -39 55 -88 71 -221 71 -91 0 -124 -4 -156 -19z m236 -236
l0 -85 -85 0 -85 0 0 85 0 85 85 0 85 0 0 -85z"/>
<path d="M3875 4259 c-275 -30 -512 -143 -682 -323 -123 -130 -147 -198 -86
-246 50 -39 91 -22 155 65 301 407 1027 458 1408 98 36 -34 81 -84 100 -112
53 -77 102 -91 151 -42 16 17 29 40 29 54 0 58 -154 236 -275 318 -220 148
-523 220 -800 188z"/>
<path d="M3960 3922 c-232 -13 -478 -156 -600 -348 -49 -78 -35 -142 35 -160
40 -10 70 9 114 74 78 115 213 211 351 247 73 20 226 19 304 -1 134 -35 274
-134 351 -250 52 -78 106 -93 155 -44 34 34 26 84 -25 155 -156 219 -416 343
-685 327z"/>
<path d="M3885 3566 c-99 -31 -178 -89 -227 -165 -32 -51 -35 -86 -12 -119 38
-55 109 -45 154 22 41 61 109 98 191 104 108 7 161 -19 255 -131 32 -38 54
-44 99 -27 29 11 54 60 48 94 -7 35 -73 116 -127 157 -69 53 -157 79 -259 78
-45 0 -100 -6 -122 -13z"/>
<path d="M3285 3045 c-43 -17 -76 -41 -116 -84 -102 -107 -94 19 -94 -1431 l0
-1265 29 -62 c33 -73 103 -143 173 -176 l48 -22 770 0 770 0 47 22 c66 30 143
105 175 172 l28 56 0 1280 0 1280 -26 56 c-34 72 -96 134 -168 168 l-56 26
-760 2 -760 3 -60 -25z m1575 -168 c30 -16 51 -37 67 -67 l23 -43 0 -1229 c0
-1021 -2 -1234 -14 -1261 -16 -39 -61 -82 -99 -96 -19 -8 -261 -11 -740 -11
-669 0 -714 2 -752 19 -48 22 -69 44 -90 94 -13 32 -15 180 -15 1250 0 880 3
1223 11 1248 15 42 55 87 94 105 24 11 171 13 751 14 l721 0 43 -23z"/>
<path d="M3443 2706 l-28 -24 0 -207 0 -207 28 -24 c37 -31 81 -31 112 1 25
24 25 25 25 230 0 205 0 206 -25 230 -31 32 -75 32 -112 1z"/>
<path d="M4231 2634 c-17 -7 -36 -25 -41 -39 -6 -15 -10 -92 -10 -171 l0 -146
29 -29 c38 -37 82 -39 116 -4 24 24 25 28 25 183 0 144 -2 162 -20 184 -24 32
-59 39 -99 22z"/>
<path d="M3460 2037 c-42 -21 -51 -52 -48 -169 3 -97 5 -109 27 -132 30 -32
78 -34 115 -5 25 20 26 23 26 139 0 65 -3 126 -6 135 -7 17 -54 45 -76 45 -7
0 -24 -6 -38 -13z"/>
<path d="M4234 2040 c-48 -19 -54 -44 -54 -208 l0 -154 29 -29 c31 -31 59 -36
94 -17 43 23 46 36 47 205 l0 161 -31 26 c-32 27 -50 30 -85 16z"/>
<path d="M4546 1759 l-26 -31 0 -614 c0 -632 1 -642 39 -671 27 -21 79 -15
106 12 l25 24 0 631 0 631 -25 24 c-36 37 -86 34 -119 -6z"/>
<path d="M4209 1421 l-29 -29 0 -146 c0 -79 4 -156 10 -171 13 -34 69 -59 104
-46 50 20 56 42 56 214 0 154 -1 158 -25 182 -34 35 -78 33 -116 -4z"/>
<path d="M3500 999 c-20 -11 -47 -37 -60 -56 -23 -34 -25 -46 -28 -191 -5
-186 4 -227 59 -277 21 -19 49 -37 62 -40 13 -4 102 -5 198 -3 164 3 176 4
207 26 62 45 72 81 72 267 0 186 -10 222 -72 267 -31 22 -42 23 -218 26 -172
2 -187 1 -220 -19z m340 -274 l0 -125 -130 0 -130 0 0 125 0 125 130 0 130 0
0 -125z"/>
<path d="M4222 843 c-32 -13 -42 -61 -42 -203 0 -181 12 -210 91 -210 18 0 39
10 54 25 24 24 25 27 25 185 0 158 -1 161 -25 185 -23 24 -69 32 -103 18z"/>
</g>
</svg>
